<svg width="64" height="64" viewBox="0 0 64 64" xmlns="http://www.w3.org/2000/svg">
  <!-- 绿色背景圆形 -->
  <circle cx="32" cy="32" r="30" fill="#28a745" stroke="#1e7e34" stroke-width="2"/>
  
  <!-- Falcon主体 -->
  <g transform="translate(32, 32)">
    <!-- 头部 -->
    <ellipse cx="-2" cy="-8" rx="6" ry="8" fill="#ffffff" opacity="0.9"/>
    
    <!-- 喙 -->
    <path d="M -8 -8 L -12 -4 L -8 0 Z" fill="#ff8c00"/>
    
    <!-- 眼睛 -->
    <circle cx="-4" cy="-10" r="2" fill="#000000"/>
    <circle cx="-4" cy="-10" r="1" fill="#ffffff"/>
    
    <!-- 身体 -->
    <ellipse cx="0" cy="0" rx="12" ry="16" fill="#ffffff" opacity="0.9"/>
    
    <!-- 翅膀 -->
    <ellipse cx="-8" cy="-4" rx="8" ry="12" fill="#ffffff" opacity="0.8" transform="rotate(-20)"/>
    <ellipse cx="8" cy="-4" rx="8" ry="12" fill="#ffffff" opacity="0.8" transform="rotate(20)"/>
    
    <!-- 尾巴 -->
    <path d="M 0 12 L -6 20 L 6 20 Z" fill="#ffffff" opacity="0.8"/>
    
    <!-- 爪子 -->
    <path d="M -4 16 L -6 20 L -2 20 Z" fill="#ff8c00"/>
    <path d="M 4 16 L 6 20 L 2 20 Z" fill="#ff8c00"/>
    
    <!-- 翅膀细节 -->
    <path d="M -12 -8 L -16 -2 L -12 2" stroke="#28a745" stroke-width="1.5" fill="none"/>
    <path d="M 12 -8 L 16 -2 L 12 2" stroke="#28a745" stroke-width="1.5" fill="none"/>
    
    <!-- 身体羽毛纹理 -->
    <path d="M -6 4 L -2 8 L 2 4 L 6 8" stroke="#28a745" stroke-width="1" fill="none" opacity="0.6"/>
  </g>
</svg>
